<?xml version="1.0" encoding="utf-8"?>
<!-- Generator: Adobe Illustrator 15.1.0, SVG Export Plug-In . SVG Version: 6.00 Build 0)  -->
<!DOCTYPE svg PUBLIC "-//W3C//DTD SVG 1.1//EN" "http://www.w3.org/Graphics/SVG/1.1/DTD/svg11.dtd">
<svg version="1.1" id="Layer_1" xmlns="http://www.w3.org/2000/svg" xmlns:xlink="http://www.w3.org/1999/xlink" x="0px" y="0px"
	 width="783.636px" height="270px" viewBox="0 0 783.636 270" enable-background="new 0 0 783.636 270" xml:space="preserve">
<g>
	<rect x="5.636" y="6.637" fill="#333333" width="259" height="257"/>
	<rect x="264.636" y="6.637" fill="#E2DC7A" width="257" height="257"/>
	<path fill="#FFFFFF" d="M152.214,181.064l0.208,14.771c22.847-6.444,41.257-24.52,47.504-48.313l-13.489-3.541
		C181.817,161.576,168.621,175.105,152.214,181.064"/>
	<path fill="#FFFFFF" d="M180.497,47.34l-6.943,12.098c3.981,2.285,8.043,5.249,11.958,8.641l-8.097,8.097
		c-11.96-9.893-27.246-15.718-43.54-15.718c-16.012,0-30.749,5.546-42.405,14.809l-8.258-8.265c3.776-3.099,7.854-5.865,12.16-8.239
		l-3.356-6.096l0.01-0.012l-0.011,0.008l-3.365-6.114c-14.57,8.03-26.782,19.825-35.327,34.11l11.972,7.16
		c2.347-3.923,4.23-7.623,7.19-11.068l53.941,54.736v51.293c-4.151-0.481-6.919-1.421-10.379-2.665v-0.013
		c-2.768-1.099-6.237-2.488-9.136-4.126c-0.266-0.149-0.503-0.303-0.767-0.457l-0.148-0.097
		c-16.021-9.486-26.466-26.851-26.466-46.68c0-4.58,0.58-9.024,1.655-13.275c0.952-3.763,2.295-7.376,3.986-10.784L74.879,94.391
		c-5.903,10.097-9.291,21.836-9.291,34.352c0,26.854,15.445,50.123,38.12,61.27c0.472,0.231,0.946,0.462,1.424,0.682
		c0.199,0.092,0.396,0.188,0.595,0.276c1.602,0.735,3.234,1.406,4.891,2.017c0.181,0.067,0.361,0.13,0.542,0.197
		c0.594,0.213,1.19,0.42,1.791,0.615c0.383,0.125,0.769,0.246,1.153,0.365c0.605,0.186,1.165,0.364,1.776,0.536l0.167,0.063v-0.002
		c3.46,0.994,6.228,1.691,10.379,2.072v11.535c-4.151-0.311-7.692-0.949-11.822-1.926l-2.816,13.57
		c7.067,1.675,14.563,2.523,21.889,2.523c9.655,0,16.601-0.901,24.519-3.217l-2.073-6.639l0.201-0.055l-0.197,0.003l-2.617-6.694
		c-4.243,1.238-7.71,1.989-13.245,2.364v-76.948l28.077-27.229c-2.685-3.859-5.545-7.237-9.28-10.021l-24.353,24.566l-33.363-33.454
		c9.064-6.783,20.331-11.149,32.497-11.149c12.506,0,24.283,4.432,33.644,11.351h0.002c1.327,1.384,2.61,2.489,3.838,3.651
		l0.146,0.304c0.315,0.303,0.623,0.696,0.934,1.004c0.15,0.154,0.303,0.348,0.454,0.502c0.296,0.307,0.593,0.638,0.884,0.951
		c0.123,0.135,0.248,0.283,0.371,0.418c1.105,1.215,2.154,2.484,3.143,3.802l0.009-0.004c4.053,5.359,7.159,11.521,9.012,18.272
		l13.449-3.694c-2.51-9.14-6.841-17.423-12.527-24.511l8.176-8.174c3.347,3.849,6.367,7.906,8.833,11.974l11.928-7.229
		C207.604,68.601,193.944,55.058,180.497,47.34"/>
	<path fill="#FFFFFF" d="M411.009,181.064l0.208,14.771c22.848-6.444,41.258-24.52,47.504-48.313l-13.488-3.541
		C440.613,161.576,427.416,175.105,411.009,181.064"/>
	<path fill="#FFFFFF" d="M439.292,47.34l-6.943,12.098c3.981,2.285,8.043,5.249,11.957,8.641l-8.097,8.097
		c-11.96-9.893-27.245-15.718-43.539-15.718c-16.013,0-30.75,5.546-42.406,14.809l-8.258-8.265
		c3.776-3.099,7.855-5.865,12.161-8.239l-3.356-6.096l0.01-0.012l-0.012,0.008l-3.365-6.114c-14.57,8.03-26.781,19.825-35.327,34.11
		l11.973,7.16c2.347-3.923,4.23-7.623,7.19-11.068l53.941,54.736v51.293c-4.152-0.481-6.919-1.421-10.379-2.665v-0.013
		c-2.768-1.099-6.237-2.488-9.137-4.126c-0.265-0.149-0.502-0.303-0.767-0.457l-0.148-0.097
		c-16.021-9.486-26.466-26.851-26.466-46.68c0-4.58,0.58-9.024,1.655-13.275c0.952-3.763,2.295-7.376,3.986-10.784l-10.292-10.292
		c-5.903,10.097-9.291,21.836-9.291,34.352c0,26.854,15.444,50.123,38.119,61.27c0.473,0.231,0.946,0.462,1.424,0.682
		c0.199,0.092,0.396,0.188,0.595,0.276c1.602,0.735,3.234,1.406,4.892,2.017c0.181,0.067,0.361,0.13,0.542,0.197
		c0.594,0.213,1.19,0.42,1.79,0.615c0.383,0.125,0.769,0.246,1.153,0.365c0.606,0.186,1.165,0.364,1.777,0.536l0.167,0.063v-0.002
		c3.46,0.994,6.228,1.691,10.379,2.072v11.535c-4.152-0.311-7.693-0.949-11.822-1.926l-2.816,13.57
		c7.067,1.675,14.563,2.523,21.889,2.523c9.656,0,16.601-0.901,24.52-3.217l-2.073-6.639l0.201-0.055l-0.196,0.003l-2.617-6.694
		c-4.243,1.238-7.71,1.989-13.245,2.364v-76.948l28.077-27.229c-2.685-3.859-5.545-7.237-9.28-10.021l-24.353,24.566l-33.363-33.454
		c9.063-6.783,20.331-11.149,32.497-11.149c12.506,0,24.284,4.432,33.645,11.351h0.002c1.327,1.384,2.61,2.489,3.838,3.651
		l0.146,0.304c0.315,0.303,0.623,0.696,0.934,1.004c0.15,0.154,0.304,0.348,0.454,0.502c0.296,0.307,0.593,0.638,0.885,0.951
		c0.122,0.135,0.247,0.283,0.37,0.418c1.104,1.215,2.154,2.484,3.143,3.802l0.01-0.004c4.053,5.359,7.158,11.521,9.012,18.272
		l13.449-3.694c-2.511-9.14-6.842-17.423-12.527-24.511l8.175-8.174c3.347,3.849,6.367,7.906,8.834,11.974l11.927-7.229
		C466.399,68.601,452.739,55.058,439.292,47.34"/>
	<rect x="521.636" y="6.637" fill="#666666" width="258" height="257"/>
	<path fill="#333333" d="M668.328,181.064l0.208,14.771c22.848-6.444,41.258-24.52,47.504-48.313l-13.488-3.541
		C697.931,161.576,684.734,175.105,668.328,181.064"/>
	<path fill="#333333" d="M696.611,47.34l-6.943,12.098c3.98,2.285,8.043,5.249,11.957,8.641l-8.097,8.097
		c-11.96-9.893-27.245-15.718-43.538-15.718c-16.014,0-30.75,5.546-42.406,14.809l-8.258-8.265c3.775-3.099,7.854-5.865,12.16-8.239
		l-3.356-6.096l0.011-0.012l-0.012,0.008l-3.365-6.114c-14.57,8.03-26.781,19.825-35.327,34.11l11.973,7.16
		c2.348-3.923,4.23-7.623,7.19-11.068l53.94,54.736v51.293c-4.151-0.481-6.919-1.421-10.379-2.665v-0.013
		c-2.768-1.099-6.237-2.488-9.137-4.126c-0.265-0.149-0.503-0.303-0.767-0.457l-0.148-0.097
		c-16.021-9.486-26.466-26.851-26.466-46.68c0-4.58,0.58-9.024,1.654-13.275c0.952-3.763,2.296-7.376,3.986-10.784l-10.291-10.292
		c-5.904,10.097-9.291,21.836-9.291,34.352c0,26.854,15.444,50.123,38.119,61.27c0.473,0.231,0.946,0.462,1.425,0.682
		c0.199,0.092,0.396,0.188,0.595,0.276c1.602,0.735,3.234,1.406,4.892,2.017c0.181,0.067,0.361,0.13,0.542,0.197
		c0.594,0.213,1.19,0.42,1.79,0.615c0.384,0.125,0.77,0.246,1.153,0.365c0.605,0.186,1.165,0.364,1.776,0.536l0.167,0.063v-0.002
		c3.46,0.994,6.228,1.691,10.379,2.072v11.535c-4.151-0.311-7.692-0.949-11.821-1.926l-2.816,13.57
		c7.066,1.675,14.562,2.523,21.889,2.523c9.655,0,16.601-0.901,24.52-3.217l-2.073-6.639l0.201-0.055l-0.196,0.003l-2.617-6.694
		c-4.243,1.238-7.71,1.989-13.245,2.364v-76.948l28.077-27.229c-2.685-3.859-5.545-7.237-9.28-10.021l-24.354,24.566l-33.363-33.454
		c9.063-6.783,20.331-11.149,32.497-11.149c12.507,0,24.283,4.432,33.645,11.351h0.003c1.327,1.384,2.61,2.489,3.838,3.651
		l0.146,0.304c0.314,0.303,0.623,0.696,0.934,1.004c0.15,0.154,0.303,0.348,0.454,0.502c0.296,0.307,0.593,0.638,0.884,0.951
		c0.123,0.135,0.248,0.283,0.371,0.418c1.104,1.215,2.154,2.484,3.143,3.802l0.01-0.004c4.053,5.359,7.158,11.521,9.012,18.272
		l13.449-3.694c-2.511-9.14-6.842-17.423-12.527-24.511l8.175-8.174c3.347,3.849,6.367,7.906,8.833,11.974l11.928-7.229
		C723.717,68.601,710.057,55.058,696.611,47.34"/>
</g>
</svg>
