<?xml version="1.0" encoding="UTF-8" standalone="no"?>
<svg width="1420px" height="1004px" viewBox="0 0 1420 1004" version="1.1" xmlns="http://www.w3.org/2000/svg" xmlns:xlink="http://www.w3.org/1999/xlink" xmlns:sketch="http://www.bohemiancoding.com/sketch/ns">
    <!-- Generator: Sketch 3.1.1 (8761) - http://www.bohemiancoding.com/sketch -->
    <title>Slice 2</title>
    <desc>Created with Sketch.</desc>
    <defs>
        <rect id="path-1" x="0" y="0" width="1440" height="1024"></rect>
        <ellipse id="path-3" cx="708.106037" cy="709.107699" rx="708.316284" ry="709.107699"></ellipse>
    </defs>
    <g id="Page-1" stroke="none" stroke-width="1" fill="none" fill-rule="evenodd" sketch:type="MSPage">
        <g id="New-Mask-Group" sketch:type="MSLayerGroup" transform="translate(-10.000000, -10.000000)">
            <mask id="mask-2" sketch:name="Mask" fill="white">
                <use xlink:href="#path-1"></use>
            </mask>
            <use id="Mask" fill="#323333" sketch:type="MSShapeGroup" xlink:href="#path-1"></use>
            <g mask="url(#mask-2)">
                <g transform="translate(397.000000, 181.000000)">
                    <mask id="mask-4" sketch:name="Mask" fill="white">
                        <use xlink:href="#path-3"></use>
                    </mask>
                    <use id="Mask" stroke="none" fill="none" sketch:type="MSShapeGroup" xlink:href="#path-3"></use>
                    <path d="M-237.596904,1236.49865 C-251.617085,1253.57609 -249.282314,1278.95261 -232.377256,1293.18274 L698.972698,2077.16302 C715.87561,2091.39134 743.255806,2091.36018 760.126092,2077.09508 L1692.50066,1288.70239 C1709.37183,1274.43655 1711.48127,1249.19358 1697.22209,1232.33233 L743.037384,104.024031 C728.773784,87.1575504 705.842496,87.3319174 691.82507,104.405997 L-237.596904,1236.49865 Z" id="Rectangle-10" stroke="none" fill="#EACC62" fill-rule="evenodd" sketch:type="MSShapeGroup" mask="url(#mask-4)"></path>
                    <path d="M-155.359485,1287.449 C-168.670749,1305.07852 -166.291047,1331.51192 -150.046722,1346.48738 L701.876357,2131.86586 C718.121779,2146.84234 744.533416,2146.92929 760.873414,2132.05552 L1616.64125,1353.07762 C1632.979,1338.20589 1635.25533,1311.99657 1621.71876,1294.52867 L743.428629,161.163352 C729.895107,143.699391 708.129379,143.838548 694.821844,161.463136 L-155.359485,1287.449 Z" id="Rectangle-14" stroke="none" fill="#F1A45D" fill-rule="evenodd" sketch:type="MSShapeGroup" mask="url(#mask-4)"></path>
                    <path d="M-54.4876408,1371.65401 C-66.5689486,1390.14702 -63.6998295,1417.80152 -48.0745299,1433.42682 L704.754147,2186.2555 C720.377319,2201.87867 745.712581,2201.87357 761.324091,2186.26206 L1513.97807,1433.60802 C1529.59762,1417.98847 1532.2601,1390.47475 1519.91841,1372.14478 L743.016477,218.284183 C730.677689,199.958523 710.885175,200.08824 698.799983,218.587196 L-54.4876408,1371.65401 Z" id="Rectangle-15" stroke="none" fill="#EE8359" fill-rule="evenodd" sketch:type="MSShapeGroup" mask="url(#mask-4)"></path>
                    <path d="M77.0408993,1412.13709 C66.2903576,1431.43467 68.8191184,1461.00558 82.6998818,1478.19898 L708.737893,2253.6409 C722.613804,2270.8283 745.173142,2270.87218 759.12473,2253.73996 L1389.96954,1479.07755 C1403.92151,1461.94486 1406.23063,1432.5804 1395.12497,1413.48653 L741.602029,289.889866 C730.497322,270.797632 712.781399,270.96184 702.0296,290.261676 L77.0408993,1412.13709 Z" id="Rectangle-16" stroke="none" fill="#C86050" fill-rule="evenodd" sketch:type="MSShapeGroup" mask="url(#mask-4)"></path>
                </g>
            </g>
        </g>
    </g>
</svg>