<?xml version="1.0" encoding="UTF-8" standalone="no"?>
<svg width="1440px" height="1024px" viewBox="0 0 1440 1024" version="1.1" xmlns="http://www.w3.org/2000/svg" xmlns:xlink="http://www.w3.org/1999/xlink" xmlns:sketch="http://www.bohemiancoding.com/sketch/ns">
    <!-- Generator: Sketch 3.1.1 (8761) - http://www.bohemiancoding.com/sketch -->
    <title>New Mask Group</title>
    <desc>Created with Sketch.</desc>
    <defs>
        <rect id="path-1" x="0" y="0" width="1440" height="1024"></rect>
    </defs>
    <g id="Page-1" stroke="none" stroke-width="1" fill="none" fill-rule="evenodd" sketch:type="MSPage">
        <g id="New-Mask-Group" sketch:type="MSLayerGroup">
            <mask id="mask-2" sketch:name="Mask" fill="white">
                <use xlink:href="#path-1"></use>
            </mask>
            <use id="Mask" fill="#212121" sketch:type="MSShapeGroup" xlink:href="#path-1"></use>
            <g mask="url(#mask-2)" sketch:type="MSShapeGroup">
                <g transform="translate(152.000000, 290.000000)">
                    <path d="M-1.34551765,1147.72355 C-15.3611931,1164.7955 -13.0166997,1190.17269 3.88578714,1204.40066 L945.96612,1997.41342 C962.870966,2011.64337 990.246788,2011.61854 1007.12601,1997.34589 L1950.2418,1199.87069 C1967.11463,1185.60345 1969.23231,1160.3675 1954.95984,1143.49054 L989.906908,2.33073006 C975.63978,-14.5399231 952.711837,-14.3764977 938.696362,2.69520592 L-1.34551765,1147.72355 Z" id="Rectangle-10" fill="#EACC62"></path>
                    <path d="M89.640515,1178.449 C76.3292511,1196.07852 78.7089534,1222.51192 94.9532777,1237.48738 L946.876357,2022.86586 C963.121779,2037.84234 989.533416,2037.92929 1005.87341,2023.05552 L1861.64125,1244.07762 C1877.979,1229.20589 1880.25533,1202.99657 1866.71876,1185.52867 L988.428629,52.1633522 C974.895107,34.6993912 953.129379,34.8385478 939.821844,52.4631362 L89.640515,1178.449 Z" id="Rectangle-14" fill="#F1A45D"></path>
                    <path d="M190.512359,1262.65401 C178.431051,1281.14702 181.30017,1308.80152 196.92547,1324.42682 L949.754147,2077.2555 C965.377319,2092.87867 990.712581,2092.87357 1006.32409,2077.26206 L1758.97807,1324.60802 C1774.59762,1308.98847 1777.2601,1281.47475 1764.91841,1263.14478 L988.016477,109.284183 C975.677689,90.9585228 955.885175,91.0882403 943.799983,109.587196 L190.512359,1262.65401 Z" id="Rectangle-15" fill="#EE8359"></path>
                    <path d="M322.040899,1303.13709 C311.290358,1322.43467 313.819118,1352.00558 327.699882,1369.19898 L953.737893,2144.6409 C967.613804,2161.8283 990.173142,2161.87218 1004.12473,2144.73996 L1634.96954,1370.07755 C1648.92151,1352.94486 1651.23063,1323.5804 1640.12497,1304.48653 L986.602029,180.889866 C975.497322,161.797632 957.781399,161.96184 947.0296,181.261676 L322.040899,1303.13709 Z" id="Rectangle-16" fill="#C86050"></path>
                </g>
            </g>
        </g>
    </g>
</svg>